<mxfile host="app.diagrams.net" modified="2024-09-22T23:10:55.240Z" agent="Mozilla/5.0 (X11; Linux x86_64; rv:130.0) Gecko/20100101 Firefox/130.0" etag="h2S9me8TJhfwQXO_8pkJ" version="24.6.3" type="device">
  <diagram name="PÃ¡gina-1" id="lu0GmxyyxApyqx2jakNJ">
    <mxGraphModel dx="1430" dy="751" grid="1" gridSize="10" guides="1" tooltips="1" connect="1" arrows="1" fold="1" page="1" pageScale="1" pageWidth="850" pageHeight="1100" math="0" shadow="0">
      <root>
        <mxCell id="0" />
        <mxCell id="1" parent="0" />
        <mxCell id="JgFa77fOwUUg-KJOFTVx-3" value="" style="edgeStyle=orthogonalEdgeStyle;rounded=0;orthogonalLoop=1;jettySize=auto;html=1;" edge="1" parent="1" source="JgFa77fOwUUg-KJOFTVx-1" target="JgFa77fOwUUg-KJOFTVx-2">
          <mxGeometry relative="1" as="geometry" />
        </mxCell>
        <mxCell id="JgFa77fOwUUg-KJOFTVx-1" value="Orders" style="rounded=0;whiteSpace=wrap;html=1;" vertex="1" parent="1">
          <mxGeometry x="165" y="20" width="120" height="60" as="geometry" />
        </mxCell>
        <mxCell id="JgFa77fOwUUg-KJOFTVx-5" value="" style="edgeStyle=orthogonalEdgeStyle;rounded=0;orthogonalLoop=1;jettySize=auto;html=1;" edge="1" parent="1" source="JgFa77fOwUUg-KJOFTVx-2" target="JgFa77fOwUUg-KJOFTVx-4">
          <mxGeometry relative="1" as="geometry" />
        </mxCell>
        <mxCell id="JgFa77fOwUUg-KJOFTVx-2" value="Payments" style="rounded=0;whiteSpace=wrap;html=1;" vertex="1" parent="1">
          <mxGeometry x="365" y="20" width="120" height="60" as="geometry" />
        </mxCell>
        <mxCell id="JgFa77fOwUUg-KJOFTVx-4" value="Payment Gateway" style="rounded=0;whiteSpace=wrap;html=1;" vertex="1" parent="1">
          <mxGeometry x="565" y="20" width="120" height="60" as="geometry" />
        </mxCell>
        <mxCell id="JgFa77fOwUUg-KJOFTVx-20" style="edgeStyle=orthogonalEdgeStyle;rounded=0;orthogonalLoop=1;jettySize=auto;html=1;" edge="1" parent="1" source="JgFa77fOwUUg-KJOFTVx-17" target="JgFa77fOwUUg-KJOFTVx-18">
          <mxGeometry relative="1" as="geometry" />
        </mxCell>
        <mxCell id="JgFa77fOwUUg-KJOFTVx-17" value="Closed" style="rounded=0;whiteSpace=wrap;html=1;" vertex="1" parent="1">
          <mxGeometry x="165" y="370" width="120" height="60" as="geometry" />
        </mxCell>
        <mxCell id="JgFa77fOwUUg-KJOFTVx-21" style="edgeStyle=orthogonalEdgeStyle;rounded=0;orthogonalLoop=1;jettySize=auto;html=1;" edge="1" parent="1" source="JgFa77fOwUUg-KJOFTVx-18" target="JgFa77fOwUUg-KJOFTVx-19">
          <mxGeometry relative="1" as="geometry">
            <Array as="points">
              <mxPoint x="560" y="500" />
              <mxPoint x="560" y="500" />
            </Array>
          </mxGeometry>
        </mxCell>
        <mxCell id="JgFa77fOwUUg-KJOFTVx-18" value="Open" style="rounded=0;whiteSpace=wrap;html=1;" vertex="1" parent="1">
          <mxGeometry x="460" y="370" width="120" height="60" as="geometry" />
        </mxCell>
        <mxCell id="JgFa77fOwUUg-KJOFTVx-22" style="edgeStyle=orthogonalEdgeStyle;rounded=0;orthogonalLoop=1;jettySize=auto;html=1;entryX=0.5;entryY=1;entryDx=0;entryDy=0;" edge="1" parent="1">
          <mxGeometry relative="1" as="geometry">
            <mxPoint x="479.9999999999998" y="560" as="sourcePoint" />
            <mxPoint x="479.9999999999998" y="430" as="targetPoint" />
          </mxGeometry>
        </mxCell>
        <mxCell id="JgFa77fOwUUg-KJOFTVx-23" style="edgeStyle=orthogonalEdgeStyle;rounded=0;orthogonalLoop=1;jettySize=auto;html=1;entryX=0.5;entryY=1;entryDx=0;entryDy=0;" edge="1" parent="1">
          <mxGeometry relative="1" as="geometry">
            <mxPoint x="505" y="590" as="sourcePoint" />
            <mxPoint x="270" y="430" as="targetPoint" />
          </mxGeometry>
        </mxCell>
        <mxCell id="JgFa77fOwUUg-KJOFTVx-19" value="Half-Open" style="rounded=0;whiteSpace=wrap;html=1;" vertex="1" parent="1">
          <mxGeometry x="460" y="560" width="120" height="60" as="geometry" />
        </mxCell>
        <mxCell id="JgFa77fOwUUg-KJOFTVx-25" style="edgeStyle=orthogonalEdgeStyle;rounded=0;orthogonalLoop=1;jettySize=auto;html=1;entryX=0.25;entryY=0;entryDx=0;entryDy=0;" edge="1" parent="1">
          <mxGeometry relative="1" as="geometry">
            <mxPoint x="189.00000000000023" y="370.0000000000001" as="sourcePoint" />
            <mxPoint x="174" y="370.0000000000001" as="targetPoint" />
            <Array as="points">
              <mxPoint x="204" y="370" />
              <mxPoint x="204" y="320" />
              <mxPoint x="174" y="320" />
            </Array>
          </mxGeometry>
        </mxCell>
        <mxCell id="JgFa77fOwUUg-KJOFTVx-26" value="success" style="text;html=1;align=center;verticalAlign=middle;resizable=0;points=[];autosize=1;strokeColor=none;fillColor=none;" vertex="1" parent="1">
          <mxGeometry x="153" y="290" width="70" height="30" as="geometry" />
        </mxCell>
        <mxCell id="JgFa77fOwUUg-KJOFTVx-27" style="edgeStyle=orthogonalEdgeStyle;rounded=0;orthogonalLoop=1;jettySize=auto;html=1;entryX=0.25;entryY=1;entryDx=0;entryDy=0;" edge="1" parent="1">
          <mxGeometry relative="1" as="geometry">
            <mxPoint x="204" y="430" as="sourcePoint" />
            <mxPoint x="174" y="430" as="targetPoint" />
            <Array as="points">
              <mxPoint x="204" y="490" />
              <mxPoint x="174" y="490" />
            </Array>
          </mxGeometry>
        </mxCell>
        <mxCell id="JgFa77fOwUUg-KJOFTVx-28" value="&lt;div&gt;fail&amp;nbsp;&lt;/div&gt;&lt;div&gt;[abaixo do limite de erros]&lt;/div&gt;" style="text;html=1;align=center;verticalAlign=middle;resizable=0;points=[];autosize=1;strokeColor=none;fillColor=none;" vertex="1" parent="1">
          <mxGeometry x="109" y="490" width="160" height="40" as="geometry" />
        </mxCell>
        <mxCell id="JgFa77fOwUUg-KJOFTVx-29" value="fail [acima do limite de erros]" style="text;html=1;align=center;verticalAlign=middle;resizable=0;points=[];autosize=1;strokeColor=none;fillColor=none;" vertex="1" parent="1">
          <mxGeometry x="285" y="370" width="180" height="30" as="geometry" />
        </mxCell>
        <mxCell id="JgFa77fOwUUg-KJOFTVx-31" style="edgeStyle=orthogonalEdgeStyle;rounded=0;orthogonalLoop=1;jettySize=auto;html=1;entryX=0.75;entryY=0;entryDx=0;entryDy=0;" edge="1" parent="1">
          <mxGeometry relative="1" as="geometry">
            <mxPoint x="530.0000000000002" y="370.0000000000001" as="sourcePoint" />
            <mxPoint x="559.9999999999998" y="370.0000000000001" as="targetPoint" />
            <Array as="points">
              <mxPoint x="530" y="320" />
              <mxPoint x="560" y="320" />
            </Array>
          </mxGeometry>
        </mxCell>
        <mxCell id="JgFa77fOwUUg-KJOFTVx-34" value="reset" style="text;html=1;align=center;verticalAlign=middle;resizable=0;points=[];autosize=1;strokeColor=none;fillColor=none;" vertex="1" parent="1">
          <mxGeometry x="560" y="468" width="50" height="30" as="geometry" />
        </mxCell>
        <mxCell id="JgFa77fOwUUg-KJOFTVx-35" value="fail" style="text;html=1;align=center;verticalAlign=middle;resizable=0;points=[];autosize=1;strokeColor=none;fillColor=none;" vertex="1" parent="1">
          <mxGeometry x="440" y="468" width="40" height="30" as="geometry" />
        </mxCell>
        <mxCell id="JgFa77fOwUUg-KJOFTVx-36" value="success" style="text;html=1;align=center;verticalAlign=middle;resizable=0;points=[];autosize=1;strokeColor=none;fillColor=none;" vertex="1" parent="1">
          <mxGeometry x="390" y="590" width="70" height="30" as="geometry" />
        </mxCell>
        <mxCell id="JgFa77fOwUUg-KJOFTVx-38" value="Orders" style="rounded=0;whiteSpace=wrap;html=1;" vertex="1" parent="1">
          <mxGeometry x="130" y="780" width="120" height="60" as="geometry" />
        </mxCell>
        <mxCell id="JgFa77fOwUUg-KJOFTVx-40" value="Payments" style="rounded=0;whiteSpace=wrap;html=1;" vertex="1" parent="1">
          <mxGeometry x="365" y="780" width="120" height="60" as="geometry" />
        </mxCell>
        <mxCell id="JgFa77fOwUUg-KJOFTVx-53" style="edgeStyle=orthogonalEdgeStyle;rounded=0;orthogonalLoop=1;jettySize=auto;html=1;dashed=1;shape=link;" edge="1" parent="1" source="JgFa77fOwUUg-KJOFTVx-69">
          <mxGeometry relative="1" as="geometry">
            <mxPoint x="660" y="1030" as="targetPoint" />
          </mxGeometry>
        </mxCell>
        <mxCell id="JgFa77fOwUUg-KJOFTVx-43" value="Payment Gateway" style="rounded=0;whiteSpace=wrap;html=1;" vertex="1" parent="1">
          <mxGeometry x="600" y="780" width="120" height="60" as="geometry" />
        </mxCell>
        <mxCell id="JgFa77fOwUUg-KJOFTVx-58" value="" style="edgeStyle=orthogonalEdgeStyle;rounded=0;orthogonalLoop=1;jettySize=auto;html=1;dashed=1;shape=link;" edge="1" parent="1" source="JgFa77fOwUUg-KJOFTVx-38" target="JgFa77fOwUUg-KJOFTVx-57">
          <mxGeometry relative="1" as="geometry">
            <mxPoint x="190" y="1090" as="targetPoint" />
            <mxPoint x="190" y="840" as="sourcePoint" />
          </mxGeometry>
        </mxCell>
        <mxCell id="JgFa77fOwUUg-KJOFTVx-71" style="edgeStyle=orthogonalEdgeStyle;rounded=0;orthogonalLoop=1;jettySize=auto;html=1;entryX=0;entryY=0.5;entryDx=0;entryDy=0;startArrow=classic;startFill=1;strokeColor=#FF0000;" edge="1" parent="1" source="JgFa77fOwUUg-KJOFTVx-57" target="JgFa77fOwUUg-KJOFTVx-67">
          <mxGeometry relative="1" as="geometry" />
        </mxCell>
        <mxCell id="JgFa77fOwUUg-KJOFTVx-57" value="" style="ellipse;whiteSpace=wrap;html=1;aspect=fixed;strokeColor=#FF0000;" vertex="1" parent="1">
          <mxGeometry x="180" y="870" width="20" height="20" as="geometry" />
        </mxCell>
        <mxCell id="JgFa77fOwUUg-KJOFTVx-60" value="" style="edgeStyle=orthogonalEdgeStyle;rounded=0;orthogonalLoop=1;jettySize=auto;html=1;dashed=1;shape=link;" edge="1" parent="1" source="JgFa77fOwUUg-KJOFTVx-57" target="JgFa77fOwUUg-KJOFTVx-59">
          <mxGeometry relative="1" as="geometry">
            <mxPoint x="190" y="1090" as="targetPoint" />
            <mxPoint x="190" y="890" as="sourcePoint" />
          </mxGeometry>
        </mxCell>
        <mxCell id="JgFa77fOwUUg-KJOFTVx-76" style="edgeStyle=orthogonalEdgeStyle;rounded=0;orthogonalLoop=1;jettySize=auto;html=1;entryX=0;entryY=0.5;entryDx=0;entryDy=0;startArrow=classic;startFill=1;" edge="1" parent="1" source="JgFa77fOwUUg-KJOFTVx-59" target="JgFa77fOwUUg-KJOFTVx-65">
          <mxGeometry relative="1" as="geometry" />
        </mxCell>
        <mxCell id="JgFa77fOwUUg-KJOFTVx-59" value="" style="ellipse;whiteSpace=wrap;html=1;aspect=fixed;" vertex="1" parent="1">
          <mxGeometry x="180" y="950" width="20" height="20" as="geometry" />
        </mxCell>
        <mxCell id="JgFa77fOwUUg-KJOFTVx-62" value="" style="edgeStyle=orthogonalEdgeStyle;rounded=0;orthogonalLoop=1;jettySize=auto;html=1;dashed=1;shape=link;" edge="1" parent="1" source="JgFa77fOwUUg-KJOFTVx-59">
          <mxGeometry relative="1" as="geometry">
            <mxPoint x="190" y="1030" as="targetPoint" />
            <mxPoint x="190" y="970" as="sourcePoint" />
          </mxGeometry>
        </mxCell>
        <mxCell id="JgFa77fOwUUg-KJOFTVx-64" value="" style="edgeStyle=orthogonalEdgeStyle;rounded=0;orthogonalLoop=1;jettySize=auto;html=1;dashed=1;shape=link;" edge="1" parent="1" source="JgFa77fOwUUg-KJOFTVx-65">
          <mxGeometry relative="1" as="geometry">
            <mxPoint x="425" y="1030" as="targetPoint" />
            <mxPoint x="425" y="840" as="sourcePoint" />
          </mxGeometry>
        </mxCell>
        <mxCell id="JgFa77fOwUUg-KJOFTVx-66" value="" style="edgeStyle=orthogonalEdgeStyle;rounded=0;orthogonalLoop=1;jettySize=auto;html=1;dashed=1;shape=link;" edge="1" parent="1" source="JgFa77fOwUUg-KJOFTVx-67" target="JgFa77fOwUUg-KJOFTVx-65">
          <mxGeometry relative="1" as="geometry">
            <mxPoint x="425" y="1030" as="targetPoint" />
            <mxPoint x="425" y="840" as="sourcePoint" />
          </mxGeometry>
        </mxCell>
        <mxCell id="JgFa77fOwUUg-KJOFTVx-78" style="edgeStyle=orthogonalEdgeStyle;rounded=0;orthogonalLoop=1;jettySize=auto;html=1;startArrow=classic;startFill=1;" edge="1" parent="1" source="JgFa77fOwUUg-KJOFTVx-65" target="JgFa77fOwUUg-KJOFTVx-77">
          <mxGeometry relative="1" as="geometry" />
        </mxCell>
        <mxCell id="JgFa77fOwUUg-KJOFTVx-65" value="" style="ellipse;whiteSpace=wrap;html=1;aspect=fixed;" vertex="1" parent="1">
          <mxGeometry x="415" y="950" width="20" height="20" as="geometry" />
        </mxCell>
        <mxCell id="JgFa77fOwUUg-KJOFTVx-68" value="" style="edgeStyle=orthogonalEdgeStyle;rounded=0;orthogonalLoop=1;jettySize=auto;html=1;dashed=1;shape=link;" edge="1" parent="1" source="JgFa77fOwUUg-KJOFTVx-40" target="JgFa77fOwUUg-KJOFTVx-67">
          <mxGeometry relative="1" as="geometry">
            <mxPoint x="425" y="950" as="targetPoint" />
            <mxPoint x="425" y="840" as="sourcePoint" />
          </mxGeometry>
        </mxCell>
        <mxCell id="JgFa77fOwUUg-KJOFTVx-72" style="edgeStyle=orthogonalEdgeStyle;rounded=0;orthogonalLoop=1;jettySize=auto;html=1;startArrow=classic;startFill=1;entryX=0;entryY=0.5;entryDx=0;entryDy=0;fontColor=#FF0000;strokeColor=#FF0000;" edge="1" parent="1" source="JgFa77fOwUUg-KJOFTVx-67" target="JgFa77fOwUUg-KJOFTVx-69">
          <mxGeometry relative="1" as="geometry">
            <mxPoint x="560" y="880" as="targetPoint" />
          </mxGeometry>
        </mxCell>
        <mxCell id="JgFa77fOwUUg-KJOFTVx-67" value="" style="ellipse;whiteSpace=wrap;html=1;aspect=fixed;strokeColor=#FF0000;" vertex="1" parent="1">
          <mxGeometry x="415" y="870" width="20" height="20" as="geometry" />
        </mxCell>
        <mxCell id="JgFa77fOwUUg-KJOFTVx-70" value="" style="edgeStyle=orthogonalEdgeStyle;rounded=0;orthogonalLoop=1;jettySize=auto;html=1;dashed=1;shape=link;" edge="1" parent="1" source="JgFa77fOwUUg-KJOFTVx-43" target="JgFa77fOwUUg-KJOFTVx-69">
          <mxGeometry relative="1" as="geometry">
            <mxPoint x="660" y="1090" as="targetPoint" />
            <mxPoint x="660" y="840" as="sourcePoint" />
          </mxGeometry>
        </mxCell>
        <mxCell id="JgFa77fOwUUg-KJOFTVx-69" value="" style="ellipse;whiteSpace=wrap;html=1;aspect=fixed;strokeColor=#FF0000;" vertex="1" parent="1">
          <mxGeometry x="650" y="870" width="20" height="20" as="geometry" />
        </mxCell>
        <mxCell id="JgFa77fOwUUg-KJOFTVx-73" value="Dispara o Circuit Breaker" style="rounded=0;whiteSpace=wrap;html=1;" vertex="1" parent="1">
          <mxGeometry x="510" y="850" width="60" height="60" as="geometry" />
        </mxCell>
        <mxCell id="JgFa77fOwUUg-KJOFTVx-74" value="Timeout" style="text;html=1;align=center;verticalAlign=middle;resizable=0;points=[];autosize=1;strokeColor=none;fillColor=none;fontColor=#FF0000;" vertex="1" parent="1">
          <mxGeometry x="670" y="865" width="70" height="30" as="geometry" />
        </mxCell>
        <mxCell id="JgFa77fOwUUg-KJOFTVx-77" value="Circuit Breaker &lt;b&gt;&quot;Open&quot;&lt;/b&gt;" style="rounded=0;whiteSpace=wrap;html=1;" vertex="1" parent="1">
          <mxGeometry x="510" y="930" width="60" height="60" as="geometry" />
        </mxCell>
        <mxCell id="JgFa77fOwUUg-KJOFTVx-80" value="Orders" style="rounded=0;whiteSpace=wrap;html=1;" vertex="1" parent="1">
          <mxGeometry x="130" y="1100" width="120" height="60" as="geometry" />
        </mxCell>
        <mxCell id="JgFa77fOwUUg-KJOFTVx-81" value="Payments" style="rounded=0;whiteSpace=wrap;html=1;" vertex="1" parent="1">
          <mxGeometry x="365" y="1100" width="120" height="60" as="geometry" />
        </mxCell>
        <mxCell id="JgFa77fOwUUg-KJOFTVx-82" style="edgeStyle=orthogonalEdgeStyle;rounded=0;orthogonalLoop=1;jettySize=auto;html=1;dashed=1;shape=link;" edge="1" parent="1" source="JgFa77fOwUUg-KJOFTVx-99">
          <mxGeometry relative="1" as="geometry">
            <mxPoint x="660" y="1350" as="targetPoint" />
          </mxGeometry>
        </mxCell>
        <mxCell id="JgFa77fOwUUg-KJOFTVx-83" value="Payment Gateway" style="rounded=0;whiteSpace=wrap;html=1;" vertex="1" parent="1">
          <mxGeometry x="600" y="1100" width="120" height="60" as="geometry" />
        </mxCell>
        <mxCell id="JgFa77fOwUUg-KJOFTVx-84" value="" style="edgeStyle=orthogonalEdgeStyle;rounded=0;orthogonalLoop=1;jettySize=auto;html=1;dashed=1;shape=link;" edge="1" parent="1" source="JgFa77fOwUUg-KJOFTVx-80" target="JgFa77fOwUUg-KJOFTVx-86">
          <mxGeometry relative="1" as="geometry">
            <mxPoint x="190" y="1410" as="targetPoint" />
            <mxPoint x="190" y="1160" as="sourcePoint" />
          </mxGeometry>
        </mxCell>
        <mxCell id="JgFa77fOwUUg-KJOFTVx-85" style="edgeStyle=orthogonalEdgeStyle;rounded=0;orthogonalLoop=1;jettySize=auto;html=1;entryX=0;entryY=0.5;entryDx=0;entryDy=0;startArrow=classic;startFill=1;strokeColor=#FF0000;" edge="1" parent="1" source="JgFa77fOwUUg-KJOFTVx-86" target="JgFa77fOwUUg-KJOFTVx-97">
          <mxGeometry relative="1" as="geometry" />
        </mxCell>
        <mxCell id="JgFa77fOwUUg-KJOFTVx-86" value="" style="ellipse;whiteSpace=wrap;html=1;aspect=fixed;strokeColor=#FF0000;" vertex="1" parent="1">
          <mxGeometry x="180" y="1190" width="20" height="20" as="geometry" />
        </mxCell>
        <mxCell id="JgFa77fOwUUg-KJOFTVx-87" value="" style="edgeStyle=orthogonalEdgeStyle;rounded=0;orthogonalLoop=1;jettySize=auto;html=1;dashed=1;shape=link;" edge="1" parent="1" source="JgFa77fOwUUg-KJOFTVx-86" target="JgFa77fOwUUg-KJOFTVx-89">
          <mxGeometry relative="1" as="geometry">
            <mxPoint x="190" y="1410" as="targetPoint" />
            <mxPoint x="190" y="1210" as="sourcePoint" />
          </mxGeometry>
        </mxCell>
        <mxCell id="JgFa77fOwUUg-KJOFTVx-88" style="edgeStyle=orthogonalEdgeStyle;rounded=0;orthogonalLoop=1;jettySize=auto;html=1;entryX=0;entryY=0.5;entryDx=0;entryDy=0;startArrow=classic;startFill=1;" edge="1" parent="1" source="JgFa77fOwUUg-KJOFTVx-89" target="JgFa77fOwUUg-KJOFTVx-94">
          <mxGeometry relative="1" as="geometry" />
        </mxCell>
        <mxCell id="JgFa77fOwUUg-KJOFTVx-89" value="" style="ellipse;whiteSpace=wrap;html=1;aspect=fixed;" vertex="1" parent="1">
          <mxGeometry x="180" y="1270" width="20" height="20" as="geometry" />
        </mxCell>
        <mxCell id="JgFa77fOwUUg-KJOFTVx-90" value="" style="edgeStyle=orthogonalEdgeStyle;rounded=0;orthogonalLoop=1;jettySize=auto;html=1;dashed=1;shape=link;" edge="1" parent="1" source="JgFa77fOwUUg-KJOFTVx-89">
          <mxGeometry relative="1" as="geometry">
            <mxPoint x="190" y="1350" as="targetPoint" />
            <mxPoint x="190" y="1290" as="sourcePoint" />
          </mxGeometry>
        </mxCell>
        <mxCell id="JgFa77fOwUUg-KJOFTVx-91" value="" style="edgeStyle=orthogonalEdgeStyle;rounded=0;orthogonalLoop=1;jettySize=auto;html=1;dashed=1;shape=link;" edge="1" parent="1" source="JgFa77fOwUUg-KJOFTVx-94">
          <mxGeometry relative="1" as="geometry">
            <mxPoint x="425" y="1350" as="targetPoint" />
            <mxPoint x="425" y="1160" as="sourcePoint" />
          </mxGeometry>
        </mxCell>
        <mxCell id="JgFa77fOwUUg-KJOFTVx-92" value="" style="edgeStyle=orthogonalEdgeStyle;rounded=0;orthogonalLoop=1;jettySize=auto;html=1;dashed=1;shape=link;" edge="1" parent="1" source="JgFa77fOwUUg-KJOFTVx-97" target="JgFa77fOwUUg-KJOFTVx-94">
          <mxGeometry relative="1" as="geometry">
            <mxPoint x="425" y="1350" as="targetPoint" />
            <mxPoint x="425" y="1160" as="sourcePoint" />
          </mxGeometry>
        </mxCell>
        <mxCell id="JgFa77fOwUUg-KJOFTVx-93" style="edgeStyle=orthogonalEdgeStyle;rounded=0;orthogonalLoop=1;jettySize=auto;html=1;startArrow=classic;startFill=1;" edge="1" parent="1" source="JgFa77fOwUUg-KJOFTVx-94" target="JgFa77fOwUUg-KJOFTVx-102">
          <mxGeometry relative="1" as="geometry" />
        </mxCell>
        <mxCell id="JgFa77fOwUUg-KJOFTVx-94" value="" style="ellipse;whiteSpace=wrap;html=1;aspect=fixed;" vertex="1" parent="1">
          <mxGeometry x="415" y="1270" width="20" height="20" as="geometry" />
        </mxCell>
        <mxCell id="JgFa77fOwUUg-KJOFTVx-95" value="" style="edgeStyle=orthogonalEdgeStyle;rounded=0;orthogonalLoop=1;jettySize=auto;html=1;dashed=1;shape=link;" edge="1" parent="1" source="JgFa77fOwUUg-KJOFTVx-81" target="JgFa77fOwUUg-KJOFTVx-97">
          <mxGeometry relative="1" as="geometry">
            <mxPoint x="425" y="1270" as="targetPoint" />
            <mxPoint x="425" y="1160" as="sourcePoint" />
          </mxGeometry>
        </mxCell>
        <mxCell id="JgFa77fOwUUg-KJOFTVx-96" style="edgeStyle=orthogonalEdgeStyle;rounded=0;orthogonalLoop=1;jettySize=auto;html=1;startArrow=classic;startFill=1;entryX=0;entryY=0.5;entryDx=0;entryDy=0;fontColor=#FF0000;strokeColor=#FF0000;" edge="1" parent="1" source="JgFa77fOwUUg-KJOFTVx-97" target="JgFa77fOwUUg-KJOFTVx-99">
          <mxGeometry relative="1" as="geometry">
            <mxPoint x="560" y="1200" as="targetPoint" />
          </mxGeometry>
        </mxCell>
        <mxCell id="JgFa77fOwUUg-KJOFTVx-97" value="" style="ellipse;whiteSpace=wrap;html=1;aspect=fixed;strokeColor=#FF0000;" vertex="1" parent="1">
          <mxGeometry x="415" y="1190" width="20" height="20" as="geometry" />
        </mxCell>
        <mxCell id="JgFa77fOwUUg-KJOFTVx-98" value="" style="edgeStyle=orthogonalEdgeStyle;rounded=0;orthogonalLoop=1;jettySize=auto;html=1;dashed=1;shape=link;" edge="1" parent="1" source="JgFa77fOwUUg-KJOFTVx-83" target="JgFa77fOwUUg-KJOFTVx-99">
          <mxGeometry relative="1" as="geometry">
            <mxPoint x="660" y="1410" as="targetPoint" />
            <mxPoint x="660" y="1160" as="sourcePoint" />
          </mxGeometry>
        </mxCell>
        <mxCell id="JgFa77fOwUUg-KJOFTVx-99" value="" style="ellipse;whiteSpace=wrap;html=1;aspect=fixed;strokeColor=#FF0000;" vertex="1" parent="1">
          <mxGeometry x="650" y="1190" width="20" height="20" as="geometry" />
        </mxCell>
        <mxCell id="JgFa77fOwUUg-KJOFTVx-100" value="Dispara o Circuit Breaker" style="rounded=0;whiteSpace=wrap;html=1;" vertex="1" parent="1">
          <mxGeometry x="510" y="1170" width="60" height="60" as="geometry" />
        </mxCell>
        <mxCell id="JgFa77fOwUUg-KJOFTVx-101" value="Timeout" style="text;html=1;align=center;verticalAlign=middle;resizable=0;points=[];autosize=1;strokeColor=none;fillColor=none;fontColor=#FF0000;" vertex="1" parent="1">
          <mxGeometry x="670" y="1185" width="70" height="30" as="geometry" />
        </mxCell>
        <mxCell id="JgFa77fOwUUg-KJOFTVx-108" style="edgeStyle=orthogonalEdgeStyle;rounded=0;orthogonalLoop=1;jettySize=auto;html=1;entryX=0;entryY=0.5;entryDx=0;entryDy=0;startArrow=classic;startFill=1;" edge="1" parent="1" source="JgFa77fOwUUg-KJOFTVx-102" target="JgFa77fOwUUg-KJOFTVx-106">
          <mxGeometry relative="1" as="geometry" />
        </mxCell>
        <mxCell id="JgFa77fOwUUg-KJOFTVx-109" value="Fallback" style="edgeLabel;html=1;align=center;verticalAlign=middle;resizable=0;points=[];" vertex="1" connectable="0" parent="JgFa77fOwUUg-KJOFTVx-108">
          <mxGeometry x="-0.0073" y="2" relative="1" as="geometry">
            <mxPoint as="offset" />
          </mxGeometry>
        </mxCell>
        <mxCell id="JgFa77fOwUUg-KJOFTVx-102" value="Circuit Breaker &lt;b&gt;&quot;Open&quot;&lt;/b&gt;" style="rounded=0;whiteSpace=wrap;html=1;" vertex="1" parent="1">
          <mxGeometry x="510" y="1250" width="60" height="60" as="geometry" />
        </mxCell>
        <mxCell id="JgFa77fOwUUg-KJOFTVx-103" style="edgeStyle=orthogonalEdgeStyle;rounded=0;orthogonalLoop=1;jettySize=auto;html=1;dashed=1;shape=link;" edge="1" parent="1" source="JgFa77fOwUUg-KJOFTVx-106">
          <mxGeometry relative="1" as="geometry">
            <mxPoint x="900" y="1350" as="targetPoint" />
          </mxGeometry>
        </mxCell>
        <mxCell id="JgFa77fOwUUg-KJOFTVx-104" value="Payment Gateway Fallback" style="rounded=0;whiteSpace=wrap;html=1;" vertex="1" parent="1">
          <mxGeometry x="840" y="1100" width="120" height="60" as="geometry" />
        </mxCell>
        <mxCell id="JgFa77fOwUUg-KJOFTVx-105" value="" style="edgeStyle=orthogonalEdgeStyle;rounded=0;orthogonalLoop=1;jettySize=auto;html=1;dashed=1;shape=link;" edge="1" parent="1" source="JgFa77fOwUUg-KJOFTVx-104" target="JgFa77fOwUUg-KJOFTVx-106">
          <mxGeometry relative="1" as="geometry">
            <mxPoint x="890" y="1410" as="targetPoint" />
            <mxPoint x="890" y="1160" as="sourcePoint" />
          </mxGeometry>
        </mxCell>
        <mxCell id="JgFa77fOwUUg-KJOFTVx-106" value="" style="ellipse;whiteSpace=wrap;html=1;aspect=fixed;strokeColor=#000000;" vertex="1" parent="1">
          <mxGeometry x="890" y="1270" width="20" height="20" as="geometry" />
        </mxCell>
        <mxCell id="JgFa77fOwUUg-KJOFTVx-111" value="Orders" style="rounded=0;whiteSpace=wrap;html=1;" vertex="1" parent="1">
          <mxGeometry x="640" y="120" width="120" height="60" as="geometry" />
        </mxCell>
        <mxCell id="JgFa77fOwUUg-KJOFTVx-112" value="Payments" style="rounded=0;whiteSpace=wrap;html=1;" vertex="1" parent="1">
          <mxGeometry x="875" y="120" width="120" height="60" as="geometry" />
        </mxCell>
        <mxCell id="JgFa77fOwUUg-KJOFTVx-113" style="edgeStyle=orthogonalEdgeStyle;rounded=0;orthogonalLoop=1;jettySize=auto;html=1;dashed=1;shape=link;" edge="1" parent="1" source="JgFa77fOwUUg-KJOFTVx-134">
          <mxGeometry relative="1" as="geometry">
            <mxPoint x="1170" y="370" as="targetPoint" />
          </mxGeometry>
        </mxCell>
        <mxCell id="JgFa77fOwUUg-KJOFTVx-114" value="Payment Gateway" style="rounded=0;whiteSpace=wrap;html=1;" vertex="1" parent="1">
          <mxGeometry x="1110" y="120" width="120" height="60" as="geometry" />
        </mxCell>
        <mxCell id="JgFa77fOwUUg-KJOFTVx-115" value="" style="edgeStyle=orthogonalEdgeStyle;rounded=0;orthogonalLoop=1;jettySize=auto;html=1;dashed=1;shape=link;" edge="1" parent="1" source="JgFa77fOwUUg-KJOFTVx-111" target="JgFa77fOwUUg-KJOFTVx-117">
          <mxGeometry relative="1" as="geometry">
            <mxPoint x="700" y="430" as="targetPoint" />
            <mxPoint x="700" y="180" as="sourcePoint" />
          </mxGeometry>
        </mxCell>
        <mxCell id="JgFa77fOwUUg-KJOFTVx-116" style="edgeStyle=orthogonalEdgeStyle;rounded=0;orthogonalLoop=1;jettySize=auto;html=1;entryX=0;entryY=0.5;entryDx=0;entryDy=0;startArrow=classic;startFill=1;strokeColor=#FF0000;" edge="1" parent="1" source="JgFa77fOwUUg-KJOFTVx-117" target="JgFa77fOwUUg-KJOFTVx-128">
          <mxGeometry relative="1" as="geometry" />
        </mxCell>
        <mxCell id="JgFa77fOwUUg-KJOFTVx-117" value="" style="ellipse;whiteSpace=wrap;html=1;aspect=fixed;strokeColor=#FF0000;" vertex="1" parent="1">
          <mxGeometry x="690" y="210" width="20" height="20" as="geometry" />
        </mxCell>
        <mxCell id="JgFa77fOwUUg-KJOFTVx-118" value="" style="edgeStyle=orthogonalEdgeStyle;rounded=0;orthogonalLoop=1;jettySize=auto;html=1;dashed=1;shape=link;" edge="1" parent="1" source="JgFa77fOwUUg-KJOFTVx-117" target="JgFa77fOwUUg-KJOFTVx-120">
          <mxGeometry relative="1" as="geometry">
            <mxPoint x="700" y="430" as="targetPoint" />
            <mxPoint x="700" y="230" as="sourcePoint" />
          </mxGeometry>
        </mxCell>
        <mxCell id="JgFa77fOwUUg-KJOFTVx-119" style="edgeStyle=orthogonalEdgeStyle;rounded=0;orthogonalLoop=1;jettySize=auto;html=1;entryX=0;entryY=0.5;entryDx=0;entryDy=0;startArrow=classic;startFill=1;strokeColor=#FF0000;" edge="1" parent="1" source="JgFa77fOwUUg-KJOFTVx-120" target="JgFa77fOwUUg-KJOFTVx-125">
          <mxGeometry relative="1" as="geometry" />
        </mxCell>
        <mxCell id="JgFa77fOwUUg-KJOFTVx-120" value="" style="ellipse;whiteSpace=wrap;html=1;aspect=fixed;strokeColor=#FF0000;" vertex="1" parent="1">
          <mxGeometry x="690" y="290" width="20" height="20" as="geometry" />
        </mxCell>
        <mxCell id="JgFa77fOwUUg-KJOFTVx-121" value="" style="edgeStyle=orthogonalEdgeStyle;rounded=0;orthogonalLoop=1;jettySize=auto;html=1;dashed=1;shape=link;" edge="1" parent="1" source="JgFa77fOwUUg-KJOFTVx-120">
          <mxGeometry relative="1" as="geometry">
            <mxPoint x="700" y="370" as="targetPoint" />
            <mxPoint x="700" y="310" as="sourcePoint" />
          </mxGeometry>
        </mxCell>
        <mxCell id="JgFa77fOwUUg-KJOFTVx-122" value="" style="edgeStyle=orthogonalEdgeStyle;rounded=0;orthogonalLoop=1;jettySize=auto;html=1;dashed=1;shape=link;" edge="1" parent="1" source="JgFa77fOwUUg-KJOFTVx-125">
          <mxGeometry relative="1" as="geometry">
            <mxPoint x="935" y="370" as="targetPoint" />
            <mxPoint x="935" y="180" as="sourcePoint" />
          </mxGeometry>
        </mxCell>
        <mxCell id="JgFa77fOwUUg-KJOFTVx-123" value="" style="edgeStyle=orthogonalEdgeStyle;rounded=0;orthogonalLoop=1;jettySize=auto;html=1;dashed=1;shape=link;" edge="1" parent="1" source="JgFa77fOwUUg-KJOFTVx-128" target="JgFa77fOwUUg-KJOFTVx-125">
          <mxGeometry relative="1" as="geometry">
            <mxPoint x="935" y="370" as="targetPoint" />
            <mxPoint x="935" y="180" as="sourcePoint" />
          </mxGeometry>
        </mxCell>
        <mxCell id="JgFa77fOwUUg-KJOFTVx-124" style="edgeStyle=orthogonalEdgeStyle;rounded=0;orthogonalLoop=1;jettySize=auto;html=1;startArrow=classic;startFill=1;entryX=0;entryY=0.5;entryDx=0;entryDy=0;strokeColor=#FF0000;" edge="1" parent="1" source="JgFa77fOwUUg-KJOFTVx-125" target="JgFa77fOwUUg-KJOFTVx-134">
          <mxGeometry relative="1" as="geometry">
            <mxPoint x="1020" y="300.0000000000001" as="targetPoint" />
          </mxGeometry>
        </mxCell>
        <mxCell id="JgFa77fOwUUg-KJOFTVx-125" value="" style="ellipse;whiteSpace=wrap;html=1;aspect=fixed;strokeColor=#FF0000;" vertex="1" parent="1">
          <mxGeometry x="925" y="290" width="20" height="20" as="geometry" />
        </mxCell>
        <mxCell id="JgFa77fOwUUg-KJOFTVx-126" value="" style="edgeStyle=orthogonalEdgeStyle;rounded=0;orthogonalLoop=1;jettySize=auto;html=1;dashed=1;shape=link;" edge="1" parent="1" source="JgFa77fOwUUg-KJOFTVx-112" target="JgFa77fOwUUg-KJOFTVx-128">
          <mxGeometry relative="1" as="geometry">
            <mxPoint x="935" y="290" as="targetPoint" />
            <mxPoint x="935" y="180" as="sourcePoint" />
          </mxGeometry>
        </mxCell>
        <mxCell id="JgFa77fOwUUg-KJOFTVx-127" style="edgeStyle=orthogonalEdgeStyle;rounded=0;orthogonalLoop=1;jettySize=auto;html=1;startArrow=classic;startFill=1;entryX=0;entryY=0.5;entryDx=0;entryDy=0;fontColor=#FF0000;strokeColor=#FF0000;" edge="1" parent="1" source="JgFa77fOwUUg-KJOFTVx-128" target="JgFa77fOwUUg-KJOFTVx-130">
          <mxGeometry relative="1" as="geometry">
            <mxPoint x="1070" y="220" as="targetPoint" />
          </mxGeometry>
        </mxCell>
        <mxCell id="JgFa77fOwUUg-KJOFTVx-128" value="" style="ellipse;whiteSpace=wrap;html=1;aspect=fixed;strokeColor=#FF0000;" vertex="1" parent="1">
          <mxGeometry x="925" y="210" width="20" height="20" as="geometry" />
        </mxCell>
        <mxCell id="JgFa77fOwUUg-KJOFTVx-129" value="" style="edgeStyle=orthogonalEdgeStyle;rounded=0;orthogonalLoop=1;jettySize=auto;html=1;dashed=1;shape=link;" edge="1" parent="1" source="JgFa77fOwUUg-KJOFTVx-114" target="JgFa77fOwUUg-KJOFTVx-130">
          <mxGeometry relative="1" as="geometry">
            <mxPoint x="1170" y="430" as="targetPoint" />
            <mxPoint x="1170" y="180" as="sourcePoint" />
          </mxGeometry>
        </mxCell>
        <mxCell id="JgFa77fOwUUg-KJOFTVx-130" value="" style="ellipse;whiteSpace=wrap;html=1;aspect=fixed;strokeColor=#FF0000;" vertex="1" parent="1">
          <mxGeometry x="1160" y="210" width="20" height="20" as="geometry" />
        </mxCell>
        <mxCell id="JgFa77fOwUUg-KJOFTVx-132" value="Timeout" style="text;html=1;align=center;verticalAlign=middle;resizable=0;points=[];autosize=1;strokeColor=none;fillColor=none;fontColor=#FF0000;" vertex="1" parent="1">
          <mxGeometry x="1180" y="205" width="70" height="30" as="geometry" />
        </mxCell>
        <mxCell id="JgFa77fOwUUg-KJOFTVx-135" value="" style="edgeStyle=orthogonalEdgeStyle;rounded=0;orthogonalLoop=1;jettySize=auto;html=1;dashed=1;shape=link;" edge="1" parent="1" source="JgFa77fOwUUg-KJOFTVx-130" target="JgFa77fOwUUg-KJOFTVx-134">
          <mxGeometry relative="1" as="geometry">
            <mxPoint x="1170" y="370" as="targetPoint" />
            <mxPoint x="1170" y="230" as="sourcePoint" />
          </mxGeometry>
        </mxCell>
        <mxCell id="JgFa77fOwUUg-KJOFTVx-134" value="" style="ellipse;whiteSpace=wrap;html=1;aspect=fixed;strokeColor=#FF0000;" vertex="1" parent="1">
          <mxGeometry x="1160" y="290" width="20" height="20" as="geometry" />
        </mxCell>
        <mxCell id="JgFa77fOwUUg-KJOFTVx-136" value="Timeout" style="text;html=1;align=center;verticalAlign=middle;resizable=0;points=[];autosize=1;strokeColor=none;fillColor=none;fontColor=#FF0000;" vertex="1" parent="1">
          <mxGeometry x="1180" y="285" width="70" height="30" as="geometry" />
        </mxCell>
      </root>
    </mxGraphModel>
  </diagram>
</mxfile>
